# xmcd CD database file
#
# Track frame offsets:
#	150
#	22125
#	33255
#	52399
#	68885
#	86162
#	103597
#	134084
#	150889
#	166071
#	183425
#	203997
#	218012
#	227830
#
# Disc length: 3257 seconds
#
# Revision: 0
# Processed by: cddbd v1.4PL0 Copyright (c) Steve Scherf et al.
# Submitted via: CDex 1.40Release
#
DISCID=c50cb70e
DTITLE=John Lisi - Blues For Chloe
DYEAR=1900
DGENRE=Blues
TTITLE0=No Good Man
TTITLE1=Hit The Ground Runnin'
TTITLE2=Little Red Rooster
TTITLE3=Soothe Your Soul
TTITLE4=Groove Thang
TTITLE5=Big Ol' Broke Down Buick
TTITLE6=Blues For Chloe
TTITLE7=Ain't Nothin' Like My Baby
TTITLE8=Skat
TTITLE9=Caldonia
TTITLE10=I Guess I Got It All
TTITLE11=Little Schoolgirl
TTITLE12=Think It Over
TTITLE13=Broke-ass Musician
EXTD=ID3G: 0
EXTT0=
EXTT1=
EXTT2=
EXTT3=
EXTT4=
EXTT5=
EXTT6=
EXTT7=
EXTT8=
EXTT9=
EXTT10=
EXTT11=
EXTT12=
EXTT13=
PLAYORDER=
